<?xml version="1.0"?>
<svg xmlns="http://www.w3.org/2000/svg" viewBox="0 0 64 64" width="512" height="512"><g id="paint-painted-paint_roller-home-house" data-name="paint-painted-paint roller-home-house"><path d="M60.01,25.05a2.963,2.963,0,0,0,1.85-1.54l.21-.41a3.022,3.022,0,0,0-1.14-3.91L58,17.43V7.82A3,3,0,0,0,57,2H49a3.009,3.009,0,0,0-3,3,2.979,2.979,0,0,0,1.99,2.81v3.62L33.54,2.76a2.988,2.988,0,0,0-3.08,0L3.07,19.19A3.022,3.022,0,0,0,1.93,23.1l.21.41a2.963,2.963,0,0,0,1.85,1.54,2.923,2.923,0,0,0,.83.12A3.033,3.033,0,0,0,6,24.9V56H5a3,3,0,0,0,0,6H59a3,3,0,0,0,0-6H58V24.91A2.9,2.9,0,0,0,60.01,25.05ZM49,4h8a1,1,0,0,1,0,2H49a1,1,0,0,1,0-2Zm7,4v8.23l-6.01-3.6V8ZM40,60H5a1,1,0,0,1,0-2H40Zm6,0H42V50h4Zm1-12H45V42.03a1.028,1.028,0,0,1,.42-.82l5.32-3.8A2.991,2.991,0,0,0,52,34.97V32a3.009,3.009,0,0,0-3-3H48V28a1,1,0,0,0-1-1H44a3.009,3.009,0,0,0-3-3H19a3.009,3.009,0,0,0-3,3H13a1,1,0,0,0-1,1v4a1,1,0,0,0,1,1h3a3.009,3.009,0,0,0,3,3h1v8a4,4,0,0,0,8,0V36h2a4,4,0,0,0,8,0h3a3.009,3.009,0,0,0,3-3h3a1,1,0,0,0,1-1V31h1a1,1,0,0,1,1,1v2.97a1.028,1.028,0,0,1-.42.82l-5.32,3.8A2.991,2.991,0,0,0,43,42.03V48H41a1,1,0,0,0-1,1v7H8V23.76L31.48,9.62a1.02,1.02,0,0,1,1.04,0L56,23.76V56H48V49A1,1,0,0,0,47,48ZM46,29v2H44V29Zm-4-2v6a1,1,0,0,1-1,1H38V26h3A1,1,0,0,1,42,27ZM29,30a3.009,3.009,0,0,0-3,3V44a2,2,0,0,1-4,0V26H36V36a2,2,0,0,1-4,0V33A3.009,3.009,0,0,0,29,30Zm1,3v1H28V33a1,1,0,0,1,2,0ZM20,26v8H19a1,1,0,0,1-1-1V27a1,1,0,0,1,1-1Zm-4,3v2H14V29ZM59,58a1,1,0,0,1,0,2H48V58ZM33.55,7.91a2.979,2.979,0,0,0-3.1,0L5.34,23.03a1.018,1.018,0,0,1-.8.1.972.972,0,0,1-.61-.51l-.21-.41A1.021,1.021,0,0,1,4.1,20.9L31.49,4.47a1,1,0,0,1,1.02,0L59.9,20.9a1.021,1.021,0,0,1,.38,1.31l-.21.41a.972.972,0,0,1-.61.51,1.018,1.018,0,0,1-.8-.1Z"/></g></svg>
